Coordinates
version=1
nRows=24
nColumns=19
inDegrees=yes

Units are S.I. units (second, meters, Newtons, ...)
If the header above contains a line with 'inDegrees', this indicates whether rotational values are in degrees (yes) or radians (no).

endheader
time	pelvis_tilt	pelvis_list	pelvis_rotation	pelvis_tx	pelvis_ty	pelvis_tz	hip_flexion_r	hip_adduction_r	hip_rotation_r	knee_angle_r	knee_angle_r_beta	ankle_angle_r	hip_flexion_l	hip_adduction_l	hip_rotation_l	knee_angle_l	knee_angle_l_beta	ankle_angle_l
     15.62000000	     -2.04927697	     -5.15144488	      4.76911095	      2.16244154	      0.87712197	      1.03972062	     30.41164383	      4.91851222	    -14.49697435	     20.74962450	      0.36214927	      7.88631683	    -22.68321652	    -11.12492488	     -8.58689467	     63.62816795	      1.11052103	    -18.33699284
     15.62666667	     -1.67125907	     -5.31341896	      3.88067013	      2.16251333	      0.87196014	      1.03951696	     30.72667293	      5.19479601	    -14.34873677	     24.52361975	      0.42801791	      7.24772138	    -22.10187646	    -10.50537275	     -7.88834371	     67.48509141	      1.17783704	    -18.70993825
     15.63333333	     -1.33732358	     -5.46250314	      2.88091327	      2.16243387	      0.86653511	      1.03943351	     31.08192847	      5.50226124	    -13.91551390	     28.40104379	      0.49569173	      6.90041357	    -21.42387412	     -9.88975732	     -7.52651161	     71.31989086	      1.24476692	    -18.93212213
     15.64000000	     -0.99237172	     -5.57841619	      1.82121599	      2.16218574	      0.86105566	      1.03948273	     31.37920593	      5.83497937	    -13.22177367	     32.28898860	      0.56354916	      6.96712955	    -20.68845823	     -9.28603765	     -7.40934603	     75.09815839	      1.31071013	    -18.97372848
     15.64666667	     -0.73384313	     -5.70879433	      0.72421750	      2.16169534	      0.85555659	      1.03971589	     31.68736830	      6.25049606	    -12.31872211	     36.10028443	      0.63006882	      7.52450742	    -19.74613254	     -8.77944749	     -7.48132250	     78.86263495	      1.37641264	    -18.81650513
     15.65333333	      0.04042109	     -6.19711466	     -0.12222428	      2.16116599	      0.85083922	      1.03992957	     31.17431417	      6.97005739	    -11.71715907	     39.49448971	      0.68930888	      8.55775096	    -19.29900886	     -8.93834360	     -7.75873012	     82.50420667	      1.43997005	    -18.47793510
     15.66000000	     -0.40988312	     -5.96070032	     -1.27350459	      2.16011721	      0.84526318	      1.04063386	     32.04760110	      7.19864016	    -10.26731985	     43.09839145	      0.75220883	     10.05844739	    -17.21898724	     -8.14986655	     -7.75994462	     86.23460999	      1.50507787	    -17.90129666
     15.66666667	     -0.26390566	     -6.07754396	     -2.09332761	      2.15903237	      0.84087441	      1.04125361	     31.91672593	      7.69301943	     -9.24027297	     46.11764731	      0.80490479	     11.90886358	    -15.68622501	     -8.03293336	     -7.81840602	     89.78166350	      1.56698564	    -17.20386811
     15.67333333	     -0.16001456	     -6.19491160	     -2.68977271	      2.15778679	      0.83715343	      1.04187429	     31.55557359	      8.13462083	     -8.35965618	     48.70768756	      0.85010952	     13.99149113	    -13.89007567	     -8.05640465	     -7.65937955	     93.22309075	      1.62704987	    -16.38387603
     15.68000000	      0.51057654	     -6.54096392	     -3.03345815	      2.15654715	      0.83488296	      1.04239015	     30.19167415	      8.73019303	     -7.69462882	     50.67164507	      0.88438704	     16.14482957	    -12.60579497	     -8.46754263	     -7.43315717	     96.36530094	      1.68189179	    -15.68334730
     15.68666667	     -0.00432512	     -6.35943609	     -3.18626773	      2.15504116	      0.83210484	      1.04300099	     29.97966220	      8.74922866	     -7.07100144	     52.42391850	      0.91496998	     18.42445099	     -9.59332636	     -8.34760174	     -6.60169021	     99.58363470	      1.73806231	    -14.58329374
     15.69333333	      0.51563126	     -6.50145562	     -3.22111418	      2.15366844	      0.83123670	      1.04357990	     28.21979489	      9.09554761	     -6.50272901	     53.46280853	      0.93310204	     20.64717319	     -7.75642745	     -8.65815458	     -5.96515965	    102.27754624	      1.78507993	    -13.68512099
     15.70000000	      0.11875999	     -6.36770971	     -2.72006403	      2.15219119	      0.83032702	      1.04373112	     27.25196504	      8.89022916	     -6.51870169	     54.09867302	      0.94419997	     22.49489540	     -4.43073803	     -8.62166937	     -4.45222092	    104.96790376	      1.83203553	    -12.68997282
     15.70666667	      0.33022229	     -6.35786295	     -2.13838508	      2.15093177	      0.83075490	      1.04391562	     25.29250082	      8.84691609	     -6.54838348	     54.15774527	      0.94523097	     24.20976799	     -1.80326852	     -8.71565289	     -3.05447503	    107.14899060	      1.87010268	    -11.71522674
     15.71333333	      0.34996778	     -6.25945062	     -1.37781437	      2.14974206	      0.83165265	      1.04395102	     23.32143585	      8.68237260	     -6.73375449	     53.78243777	      0.93868062	     25.61263457	      1.18871083	     -8.61690128	     -1.44991585	    109.02076611	      1.90277132	    -10.81813635
     15.72000000	      0.37343514	     -6.11982374	     -0.56809380	      2.14874332	      0.83312815	      1.04401380	     21.15155346	      8.52079564	     -6.96029003	     53.03470382	      0.92563020	     26.74594539	      4.17608893	     -8.38802052	      0.12595253	    110.47438906	      1.92814183	     -9.86620937
     15.72666667	      0.31565250	     -5.92430915	      0.33308318	      2.14799444	      0.83513200	      1.04400014	     18.86996800	      8.31320040	     -7.30164749	     51.89201887	      0.90568658	     27.45301656	      7.25194460	     -7.99703923	      1.69251800	    111.50863280	      1.94619279	     -8.96901863
     15.73333333	      0.25722697	     -5.70325404	      1.23685982	      2.14749170	      0.83759669	      1.04397346	     16.44701333	      8.13031400	     -7.68059102	     50.45546212	      0.88061394	     27.82761814	     10.23585764	     -7.49652917	      3.11288217	    112.10488690	      1.95659938	     -8.02168372
     15.74000000	      0.21672092	     -5.44478586	      2.10072752	      2.14727376	      0.84055030	      1.04396465	     13.86939577	      7.97156819	     -8.05689349	     48.73561278	      0.85059691	     27.81760461	     13.06068901	     -6.88986999	      4.32009468	    112.25071090	      1.95914449	     -7.05521008
     15.74666667	      0.13471288	     -5.16034271	      2.88342088	      2.14737832	      0.84384726	      1.04399597	     11.23672479	      7.83754440	     -8.42790492	     46.79623943	      0.81674846	     27.43526349	     15.75120965	     -6.24823437	      5.24505913	    111.95862235	      1.95404659	     -6.01925459
     15.75333333	      0.12106075	     -4.84716843	      3.57520138	      2.14776815	      0.84764399	      1.04399210	      8.43812429	      7.70330112	     -8.81602061	     44.63284051	      0.77899002	     26.61299889	     18.16884774	     -5.59345846	      5.85649941	    111.22768458	      1.94128932	     -4.98372168
     15.76000000	      0.15436444	     -4.46586389	      4.11445944	      2.14854683	      0.85181827	      1.04414666	      5.53364070	      7.56106022	     -9.07846183	     42.34091968	      0.73898846	     25.32534631	     20.28010218	     -4.91767227	      6.13403892	    110.05554516	      1.92083162	     -3.92083718
     15.76666667	      0.39455159	     -4.00032633	      4.47751922	      2.14966789	      0.85656963	      1.04433851	      2.34328403	      7.35761632	     -9.26562795	     39.88194310	      0.69607122	     23.60912524	     21.88185933	     -4.27853526	      6.00405199	    108.43103210	      1.89247852	     -2.81026835
     15.77333333	      0.51829025	     -3.49899976	      4.66515012	      2.15096533	      0.86144824	      1.04457587	     -0.67873928	      7.08062844	     -9.42269844	     37.41446697	      0.65300564	     21.40884198	     23.40947510	     -3.69631574	      5.54729925	    106.45504176	      1.85799098	     -1.75772736
